<mxfile host="app.diagrams.net" agent="Mozilla/5.0 (Windows NT 10.0; Win64; x64) AppleWebKit/537.36 (KHTML, like Gecko) Chrome/129.0.0.0 Safari/537.36" version="24.7.17">
  <diagram name="Page-1" id="vZUp2fswHwf-uw_5lzqf">
    <mxGraphModel dx="2954" dy="1132" grid="1" gridSize="10" guides="1" tooltips="1" connect="1" arrows="1" fold="1" page="1" pageScale="1" pageWidth="850" pageHeight="1100" math="0" shadow="0">
      <root>
        <mxCell id="0" />
        <mxCell id="1" parent="0" />
        <mxCell id="sUPlSxf9QMq7jjAPLLe0-1" value="" style="rounded=0;whiteSpace=wrap;html=1;fillColor=none;dashed=1;dashPattern=1 1;strokeColor=#9673a6;align=left;fillStyle=auto;" vertex="1" parent="1">
          <mxGeometry x="173" y="479" width="266" height="237" as="geometry" />
        </mxCell>
        <mxCell id="sUPlSxf9QMq7jjAPLLe0-2" value="IMU" style="rounded=1;whiteSpace=wrap;html=1;fillColor=#dae8fc;strokeColor=#6c8ebf;" vertex="1" parent="1">
          <mxGeometry x="183" y="577" width="43" height="34" as="geometry" />
        </mxCell>
        <mxCell id="sUPlSxf9QMq7jjAPLLe0-3" value="" style="shape=flexArrow;endArrow=classic;startArrow=none;html=1;rounded=0;exitX=1;exitY=0.5;exitDx=0;exitDy=0;startFill=0;" edge="1" parent="1">
          <mxGeometry x="0.2419" y="-1" width="100" height="100" relative="1" as="geometry">
            <mxPoint x="248" y="594.5" as="sourcePoint" />
            <mxPoint x="302" y="595" as="targetPoint" />
            <mxPoint as="offset" />
          </mxGeometry>
        </mxCell>
        <mxCell id="sUPlSxf9QMq7jjAPLLe0-4" value="" style="group" vertex="1" connectable="0" parent="1">
          <mxGeometry x="318" y="563.5" width="96" height="63.5" as="geometry" />
        </mxCell>
        <mxCell id="sUPlSxf9QMq7jjAPLLe0-5" value="" style="rounded=1;whiteSpace=wrap;html=1;fillColor=#dae8fc;strokeColor=#6c8ebf;movable=1;resizable=1;rotatable=1;deletable=1;editable=1;locked=0;connectable=1;" vertex="1" parent="sUPlSxf9QMq7jjAPLLe0-4">
          <mxGeometry y="-5.219178082191781" width="96" height="68.71917808219179" as="geometry" />
        </mxCell>
        <mxCell id="sUPlSxf9QMq7jjAPLLe0-6" value="Linux" style="rounded=1;whiteSpace=wrap;html=1;fillColor=#dae8fc;strokeColor=#6c8ebf;movable=1;resizable=1;rotatable=1;deletable=1;editable=1;locked=0;connectable=1;" vertex="1" parent="sUPlSxf9QMq7jjAPLLe0-4">
          <mxGeometry x="10.291725807798281" y="46.440298507462686" width="69.46914920263839" height="9.951492537313431" as="geometry" />
        </mxCell>
        <mxCell id="sUPlSxf9QMq7jjAPLLe0-7" value="&lt;div&gt;&lt;b style=&quot;background-color: initial;&quot;&gt;&lt;font style=&quot;font-size: 15px;&quot;&gt;Computer&lt;/font&gt;&lt;/b&gt;&lt;br&gt;&lt;/div&gt;" style="text;html=1;align=center;verticalAlign=middle;whiteSpace=wrap;rounded=0;movable=1;resizable=1;rotatable=1;deletable=1;editable=1;locked=0;connectable=1;" vertex="1" parent="sUPlSxf9QMq7jjAPLLe0-4">
          <mxGeometry x="15.439712782833766" y="0.002207115109383511" width="67.32503965934708" height="14.216417910447761" as="geometry" />
        </mxCell>
        <mxCell id="sUPlSxf9QMq7jjAPLLe0-8" value="" style="edgeStyle=orthogonalEdgeStyle;rounded=0;orthogonalLoop=1;jettySize=auto;html=1;movable=1;resizable=1;rotatable=1;deletable=1;editable=1;locked=0;connectable=1;" edge="1" parent="sUPlSxf9QMq7jjAPLLe0-4" source="sUPlSxf9QMq7jjAPLLe0-10" target="sUPlSxf9QMq7jjAPLLe0-11">
          <mxGeometry relative="1" as="geometry" />
        </mxCell>
        <mxCell id="sUPlSxf9QMq7jjAPLLe0-9" value="" style="edgeStyle=orthogonalEdgeStyle;rounded=0;orthogonalLoop=1;jettySize=auto;html=1;" edge="1" parent="sUPlSxf9QMq7jjAPLLe0-4" source="sUPlSxf9QMq7jjAPLLe0-10" target="sUPlSxf9QMq7jjAPLLe0-11">
          <mxGeometry relative="1" as="geometry" />
        </mxCell>
        <mxCell id="sUPlSxf9QMq7jjAPLLe0-10" value="IMU APP" style="rounded=1;whiteSpace=wrap;html=1;fillColor=#dae8fc;strokeColor=#6c8ebf;movable=1;resizable=1;rotatable=1;deletable=1;editable=1;locked=0;connectable=1;" vertex="1" parent="sUPlSxf9QMq7jjAPLLe0-4">
          <mxGeometry x="10.291525423728814" y="17.397260273972602" width="33.6406779661017" height="24.78239726027397" as="geometry" />
        </mxCell>
        <mxCell id="sUPlSxf9QMq7jjAPLLe0-11" value="IMU Data" style="text;html=1;align=center;verticalAlign=middle;whiteSpace=wrap;rounded=0;movable=1;resizable=1;rotatable=1;deletable=1;editable=1;locked=0;connectable=1;" vertex="1" parent="sUPlSxf9QMq7jjAPLLe0-4">
          <mxGeometry x="59.39263588544712" y="22.677588427724388" width="25.729314519495702" height="14.216417910447761" as="geometry" />
        </mxCell>
        <mxCell id="sUPlSxf9QMq7jjAPLLe0-12" value="Tx" style="text;html=1;align=center;verticalAlign=middle;whiteSpace=wrap;rounded=0;" vertex="1" parent="1">
          <mxGeometry x="209" y="580" width="54" height="25" as="geometry" />
        </mxCell>
        <mxCell id="sUPlSxf9QMq7jjAPLLe0-13" value="Rx" style="text;html=1;align=center;verticalAlign=middle;whiteSpace=wrap;rounded=0;" vertex="1" parent="1">
          <mxGeometry x="282" y="581.5" width="54" height="25" as="geometry" />
        </mxCell>
        <mxCell id="sUPlSxf9QMq7jjAPLLe0-14" value="Tester Computer" style="rounded=0;whiteSpace=wrap;html=1;fillColor=#e1d5e7;strokeColor=#9673a6;" vertex="1" parent="1">
          <mxGeometry x="321.25" y="639.5" width="89.5" height="60" as="geometry" />
        </mxCell>
        <mxCell id="sUPlSxf9QMq7jjAPLLe0-15" value="" style="shape=flexArrow;endArrow=classic;startArrow=none;html=1;rounded=0;startFill=0;" edge="1" parent="1">
          <mxGeometry x="0.2419" y="-1" width="100" height="100" relative="1" as="geometry">
            <mxPoint x="269" y="599" as="sourcePoint" />
            <mxPoint x="300" y="669.66" as="targetPoint" />
            <mxPoint as="offset" />
            <Array as="points">
              <mxPoint x="269" y="670" />
            </Array>
          </mxGeometry>
        </mxCell>
        <mxCell id="sUPlSxf9QMq7jjAPLLe0-16" value="Rx" style="text;html=1;align=center;verticalAlign=middle;whiteSpace=wrap;rounded=0;" vertex="1" parent="1">
          <mxGeometry x="282" y="657" width="54" height="25" as="geometry" />
        </mxCell>
        <mxCell id="sUPlSxf9QMq7jjAPLLe0-17" value="" style="rounded=0;whiteSpace=wrap;html=1;fillColor=none;dashed=1;dashPattern=1 1;strokeColor=#9673a6;align=left;fillStyle=auto;" vertex="1" parent="1">
          <mxGeometry x="452" y="479" width="266" height="238" as="geometry" />
        </mxCell>
        <mxCell id="sUPlSxf9QMq7jjAPLLe0-18" value="IMU" style="rounded=1;whiteSpace=wrap;html=1;fillColor=#dae8fc;strokeColor=#6c8ebf;" vertex="1" parent="1">
          <mxGeometry x="459" y="577" width="43" height="34" as="geometry" />
        </mxCell>
        <mxCell id="sUPlSxf9QMq7jjAPLLe0-19" value="" style="group" vertex="1" connectable="0" parent="1">
          <mxGeometry x="594" y="563.5" width="96" height="63.5" as="geometry" />
        </mxCell>
        <mxCell id="sUPlSxf9QMq7jjAPLLe0-20" value="" style="rounded=1;whiteSpace=wrap;html=1;fillColor=#dae8fc;strokeColor=#6c8ebf;movable=1;resizable=1;rotatable=1;deletable=1;editable=1;locked=0;connectable=1;" vertex="1" parent="sUPlSxf9QMq7jjAPLLe0-19">
          <mxGeometry y="-5.219178082191781" width="96" height="68.71917808219179" as="geometry" />
        </mxCell>
        <mxCell id="sUPlSxf9QMq7jjAPLLe0-21" value="Linux" style="rounded=1;whiteSpace=wrap;html=1;fillColor=#dae8fc;strokeColor=#6c8ebf;movable=1;resizable=1;rotatable=1;deletable=1;editable=1;locked=0;connectable=1;" vertex="1" parent="sUPlSxf9QMq7jjAPLLe0-19">
          <mxGeometry x="10.291725807798281" y="46.440298507462686" width="69.46914920263839" height="9.951492537313431" as="geometry" />
        </mxCell>
        <mxCell id="sUPlSxf9QMq7jjAPLLe0-22" value="&lt;div&gt;&lt;b style=&quot;background-color: initial;&quot;&gt;&lt;font style=&quot;font-size: 15px;&quot;&gt;Computer&lt;/font&gt;&lt;/b&gt;&lt;br&gt;&lt;/div&gt;" style="text;html=1;align=center;verticalAlign=middle;whiteSpace=wrap;rounded=0;movable=1;resizable=1;rotatable=1;deletable=1;editable=1;locked=0;connectable=1;" vertex="1" parent="sUPlSxf9QMq7jjAPLLe0-19">
          <mxGeometry x="15.439712782833766" y="0.002207115109383511" width="67.32503965934708" height="14.216417910447761" as="geometry" />
        </mxCell>
        <mxCell id="sUPlSxf9QMq7jjAPLLe0-23" value="" style="edgeStyle=orthogonalEdgeStyle;rounded=0;orthogonalLoop=1;jettySize=auto;html=1;movable=1;resizable=1;rotatable=1;deletable=1;editable=1;locked=0;connectable=1;" edge="1" parent="sUPlSxf9QMq7jjAPLLe0-19" source="sUPlSxf9QMq7jjAPLLe0-25" target="sUPlSxf9QMq7jjAPLLe0-26">
          <mxGeometry relative="1" as="geometry" />
        </mxCell>
        <mxCell id="sUPlSxf9QMq7jjAPLLe0-24" value="" style="edgeStyle=orthogonalEdgeStyle;rounded=0;orthogonalLoop=1;jettySize=auto;html=1;" edge="1" parent="sUPlSxf9QMq7jjAPLLe0-19" source="sUPlSxf9QMq7jjAPLLe0-25" target="sUPlSxf9QMq7jjAPLLe0-26">
          <mxGeometry relative="1" as="geometry" />
        </mxCell>
        <mxCell id="sUPlSxf9QMq7jjAPLLe0-25" value="IMU APP" style="rounded=1;whiteSpace=wrap;html=1;fillColor=#dae8fc;strokeColor=#6c8ebf;movable=1;resizable=1;rotatable=1;deletable=1;editable=1;locked=0;connectable=1;" vertex="1" parent="sUPlSxf9QMq7jjAPLLe0-19">
          <mxGeometry x="10.291525423728814" y="17.397260273972602" width="33.6406779661017" height="24.78239726027397" as="geometry" />
        </mxCell>
        <mxCell id="sUPlSxf9QMq7jjAPLLe0-26" value="IMU Data" style="text;html=1;align=center;verticalAlign=middle;whiteSpace=wrap;rounded=0;movable=1;resizable=1;rotatable=1;deletable=1;editable=1;locked=0;connectable=1;" vertex="1" parent="sUPlSxf9QMq7jjAPLLe0-19">
          <mxGeometry x="59.39263588544712" y="22.677588427724388" width="25.729314519495702" height="14.216417910447761" as="geometry" />
        </mxCell>
        <mxCell id="sUPlSxf9QMq7jjAPLLe0-27" value="NC" style="text;html=1;align=center;verticalAlign=middle;whiteSpace=wrap;rounded=0;" vertex="1" parent="1">
          <mxGeometry x="485" y="581.5" width="54" height="25" as="geometry" />
        </mxCell>
        <mxCell id="sUPlSxf9QMq7jjAPLLe0-28" value="Rx" style="text;html=1;align=center;verticalAlign=middle;whiteSpace=wrap;rounded=0;" vertex="1" parent="1">
          <mxGeometry x="558" y="581.5" width="54" height="25" as="geometry" />
        </mxCell>
        <mxCell id="sUPlSxf9QMq7jjAPLLe0-29" value="Tester Computer" style="rounded=0;whiteSpace=wrap;html=1;fillColor=#e1d5e7;strokeColor=#9673a6;" vertex="1" parent="1">
          <mxGeometry x="597.25" y="639.5" width="89.5" height="60" as="geometry" />
        </mxCell>
        <mxCell id="sUPlSxf9QMq7jjAPLLe0-30" value="Tx" style="text;html=1;align=center;verticalAlign=middle;whiteSpace=wrap;rounded=0;" vertex="1" parent="1">
          <mxGeometry x="571.5" y="657" width="27" height="25" as="geometry" />
        </mxCell>
        <mxCell id="sUPlSxf9QMq7jjAPLLe0-31" value="&lt;font style=&quot;font-size: 20px;&quot;&gt;&lt;b&gt;Switch Box: Normal Mode&lt;/b&gt;&lt;/font&gt;" style="text;html=1;align=center;verticalAlign=middle;whiteSpace=wrap;rounded=0;" vertex="1" parent="1">
          <mxGeometry x="219" y="495" width="174" height="30" as="geometry" />
        </mxCell>
        <mxCell id="sUPlSxf9QMq7jjAPLLe0-32" value="&lt;font style=&quot;font-size: 20px;&quot;&gt;&lt;b&gt;Switch Box: Tester Overwrite&lt;/b&gt;&lt;/font&gt;" style="text;html=1;align=center;verticalAlign=middle;whiteSpace=wrap;rounded=0;" vertex="1" parent="1">
          <mxGeometry x="495" y="495" width="174" height="30" as="geometry" />
        </mxCell>
        <mxCell id="sUPlSxf9QMq7jjAPLLe0-33" value="" style="shape=flexArrow;endArrow=classic;startArrow=none;html=1;rounded=0;startFill=0;" edge="1" parent="1" source="sUPlSxf9QMq7jjAPLLe0-30">
          <mxGeometry x="0.2419" y="-1" width="100" height="100" relative="1" as="geometry">
            <mxPoint x="558" y="676" as="sourcePoint" />
            <mxPoint x="578" y="595" as="targetPoint" />
            <mxPoint as="offset" />
            <Array as="points">
              <mxPoint x="549" y="670" />
              <mxPoint x="549" y="595" />
            </Array>
          </mxGeometry>
        </mxCell>
      </root>
    </mxGraphModel>
  </diagram>
</mxfile>
